<!DOCTYPE svg PUBLIC "-//W3C//DTD SVG 20010904//EN" "http://www.w3.org/TR/2001/REC-SVG-20010904/DTD/svg10.dtd">
<svg version="1.0" xmlns="http://www.w3.org/2000/svg" width="100px" height="89px" viewBox="0 0 1000 890" preserveAspectRatio="xMidYMid meet">
<g id="layer101" fill="#00210e" stroke="none">
 <path d="M251 807 l-135 -82 -54 -155 c-30 -85 -56 -165 -59 -177 -3 -14 7 -41 29 -75 19 -29 63 -99 98 -156 35 -56 68 -106 74 -111 6 -4 65 -14 131 -20 66 -7 150 -17 187 -23 l67 -11 166 94 c92 51 171 101 176 110 10 20 69 293 69 322 0 10 -43 76 -96 146 l-95 126 -182 47 c-100 26 -195 47 -212 47 -19 -1 -78 -30 -164 -82z m172 -4 c8 -27 32 -111 52 -187 20 -77 39 -146 42 -154 4 -10 -128 78 -216 144 -3 3 100 244 105 244 1 0 9 -21 17 -47z m202 2 c77 -20 143 -37 147 -38 7 -2 -108 -160 -121 -165 -6 -2 -172 198 -195 236 -6 11 -4 13 10 8 11 -3 82 -21 159 -41z m-291 -76 c-26 -57 -48 -105 -49 -107 -4 -4 -124 81 -124 88 -1 6 213 129 216 126 2 -2 -18 -50 -43 -107z m191 -4 c48 -60 94 -117 101 -126 12 -13 7 -25 -38 -83 -29 -37 -54 -64 -55 -59 -1 4 -14 51 -28 103 -15 52 -37 135 -51 183 -24 87 -27 104 -20 96 2 -2 43 -53 91 -114z m254 -91 c-7 -60 -16 -113 -20 -118 -4 -5 -28 8 -53 29 l-46 37 22 32 c12 17 25 33 28 36 3 3 21 26 40 52 19 25 36 45 38 43 2 -1 -2 -52 -9 -111z m110 -4 l70 -95 -72 -17 c-108 -26 -110 -26 -103 25 3 23 9 77 12 120 4 43 10 75 15 70 4 -4 39 -51 78 -103z m-672 19 l56 -42 -31 -28 c-51 -48 -186 -159 -189 -155 -6 6 90 266 99 266 5 0 34 -19 65 -41z m52 -126 c-5 -38 -8 -77 -8 -89 -1 -18 -11 -21 -103 -32 -55 -7 -102 -11 -104 -10 -1 2 215 195 222 198 0 0 -3 -30 -7 -67z m111 9 c97 -67 120 -85 120 -92 0 -4 -52 -11 -115 -16 -111 -9 -114 -8 -110 11 2 11 7 50 10 88 5 47 10 65 18 60 7 -3 41 -27 77 -51z m324 -1 l46 -40 -33 -10 c-47 -14 -148 -33 -153 -29 -5 5 78 117 88 118 4 0 27 -18 52 -39z m256 -28 c-1 -10 -6 -43 -13 -75 l-12 -56 -74 54 c-46 33 -69 55 -60 58 22 7 133 33 147 35 6 0 12 -7 12 -16z m-205 -111 l-7 -79 -93 56 c-51 30 -92 58 -90 62 2 3 37 11 77 19 40 7 82 16 93 20 11 4 21 6 23 5 2 -2 0 -39 -3 -83z m115 10 c25 -20 48 -38 53 -42 6 -6 -5 -86 -18 -127 -3 -9 -28 1 -75 30 l-72 42 6 44 c3 24 6 62 6 84 l0 39 28 -17 c15 -10 47 -34 72 -53z m-426 -57 c-75 -84 -66 -85 -128 2 l-37 52 43 5 c60 8 107 13 151 14 l39 2 -68 -75z m-137 -9 l41 -63 -141 49 c-77 26 -142 50 -144 52 -2 2 38 8 89 13 51 6 98 11 103 11 6 1 29 -27 52 -62z m199 -22 c-8 -44 -19 -99 -23 -124 -8 -42 -11 -45 -53 -56 -91 -24 -183 -44 -187 -41 -1 2 27 36 65 77 l67 73 43 -47 c24 -26 46 -45 50 -42 3 4 -13 26 -36 49 -23 24 -42 46 -42 51 0 10 122 147 127 142 2 -2 -3 -39 -11 -82z m107 -8 c37 -52 67 -100 67 -107 -1 -8 -21 -47 -45 -88 l-43 -74 -7 59 c-4 32 -14 114 -24 182 -9 67 -16 122 -15 122 0 0 31 -42 67 -94z m64 30 l63 -37 -20 -40 c-11 -21 -22 -39 -25 -39 -3 0 -103 139 -120 170 -8 13 -6 13 15 -1 14 -8 53 -32 87 -53z m-417 -47 c52 -18 97 -34 98 -35 2 -1 -10 -17 -26 -36 -17 -18 -50 -54 -74 -81 l-43 -47 -82 134 -81 134 56 -18 c32 -10 100 -33 152 -51z m304 -142 l13 -98 -44 43 -44 44 16 99 c25 157 27 154 59 -88z m259 103 l62 -40 -88 0 -87 0 20 40 c11 22 23 40 26 40 2 0 33 -18 67 -40z m12 -73 c-11 -8 -64 -37 -117 -66 l-97 -52 37 65 37 66 80 0 c69 0 77 -2 60 -13z m-315 -92 l45 -46 -60 6 c-33 4 -82 11 -108 16 -26 5 -64 9 -84 9 -24 0 -34 3 -27 10 7 7 55 20 184 49 3 0 26 -19 50 -44z"/>
 </g>
<g id="layer102" fill="#005624" stroke="none">
 <path d="M263 811 c-73 -42 -135 -80 -138 -83 -3 -3 -33 -83 -66 -178 l-59 -172 101 -164 c56 -90 107 -164 113 -165 6 0 93 -10 194 -23 l183 -22 169 93 168 94 22 97 c11 53 27 125 35 159 8 34 15 68 15 76 0 8 -43 71 -96 140 -91 122 -97 127 -147 141 -135 38 -329 86 -345 86 -9 -1 -77 -36 -149 -79z m171 23 c4 15 10 25 15 22 4 -3 79 -23 166 -45 87 -22 160 -43 162 -45 3 -3 -25 -43 -62 -90 l-67 -86 -100 125 c-55 69 -102 125 -105 125 -3 0 -1 -6 4 -12 6 -7 52 -64 102 -127 51 -62 91 -117 89 -121 -2 -5 -25 -37 -52 -71 l-49 -63 -12 34 c-13 37 -13 36 -6 -93 1 -10 5 -16 10 -12 5 3 12 -7 14 -22 2 -16 3 -8 1 17 l-4 45 41 -57 c22 -32 43 -58 46 -58 3 0 -11 23 -31 50 -20 28 -36 52 -36 55 0 3 20 -6 45 -21 25 -14 45 -23 45 -21 0 3 -22 18 -49 33 -34 20 -48 33 -46 46 5 22 84 128 97 128 5 0 32 -19 59 -42 46 -39 49 -44 51 -92 l2 -51 3 48 4 47 80 -60 c43 -34 79 -67 79 -75 0 -29 -25 -120 -34 -127 -12 -8 -186 -11 -186 -4 0 9 42 76 47 76 3 0 31 -16 63 -35 32 -19 62 -35 66 -35 5 0 -21 18 -58 41 -66 39 -68 41 -70 82 l-1 42 -4 -38 -4 -38 -47 26 c-34 19 -40 21 -22 6 14 -11 33 -23 43 -27 23 -7 21 -21 -7 -67 l-23 -37 -27 40 c-14 22 -29 40 -32 40 -3 0 9 -20 25 -44 l31 -44 -48 -81 c-41 -71 -48 -79 -54 -59 -6 23 -6 23 -7 -2 -1 -23 -4 -22 -46 25 -25 28 -45 61 -45 75 -1 15 -4 19 -7 10 -3 -8 -12 -21 -21 -27 -14 -12 -13 -13 5 -13 12 0 36 -18 59 -47 l38 -46 -50 6 c-27 4 -98 12 -157 18 -60 7 -103 15 -96 19 8 6 7 9 -6 11 -15 3 -5 20 50 82 l69 78 46 -49 c25 -27 38 -39 30 -28 -8 12 -27 35 -42 51 l-27 30 64 73 c36 40 65 76 65 79 0 6 -81 -81 -120 -130 -17 -20 -18 -19 -63 48 -34 50 -43 71 -34 77 8 5 7 8 -5 8 -15 0 -17 8 -13 63 5 67 0 60 -10 -15 -5 -38 -10 -48 -28 -51 -19 -4 -19 -4 4 -6 26 -1 30 -5 94 -105 l19 -29 -24 6 c-21 5 -21 4 3 -5 15 -7 26 -15 25 -19 -5 -12 -133 -158 -139 -158 -7 -1 -179 273 -179 283 0 3 15 7 33 7 27 2 28 2 7 6 -14 3 -28 8 -33 12 -6 6 85 286 97 299 2 2 27 -13 55 -33 28 -20 51 -34 51 -32 0 3 -20 20 -45 38 -25 18 -45 35 -45 39 0 9 221 135 231 133 5 -2 9 3 10 10 0 6 6 -1 13 -17 l13 -29 7 27z m365 -115 c1 33 3 31 82 -74 62 -82 78 -109 68 -116 -11 -7 -10 -9 4 -9 13 0 17 -5 13 -17 -2 -10 -10 -44 -17 -75 -7 -32 -14 -58 -16 -58 -8 0 -143 105 -143 111 0 4 21 10 48 14 26 4 42 9 36 12 -6 2 -30 0 -53 -6 l-41 -9 -2 42 -1 41 -4 -37 c-2 -21 -7 -38 -11 -38 -4 0 -29 20 -56 43 l-49 44 64 83 64 83 6 -34 6 -34 2 34z m71 -523 c0 -5 -235 -136 -244 -136 -7 0 46 100 67 128 6 8 38 12 93 12 46 0 84 -2 84 -4z"/>
 <path d="M335 725 c-36 -78 -52 -104 -63 -100 -11 4 -12 2 -4 -7 8 -10 -13 -33 -88 -97 -55 -46 -107 -93 -117 -104 -10 -12 24 15 75 58 51 44 104 88 118 98 23 18 24 18 25 0 1 -15 2 -14 7 4 7 20 14 16 110 -54 57 -41 106 -73 108 -71 2 2 -46 38 -106 81 l-109 77 50 106 c27 59 48 108 46 110 -2 3 -26 -43 -52 -101z"/>
 <path d="M437 770 c6 -38 31 -111 32 -95 0 6 -8 37 -19 70 -11 33 -17 44 -13 25z"/>
 <path d="M486 590 c4 -19 11 -44 15 -55 6 -14 7 -9 3 15 -4 19 -11 44 -15 55 -6 14 -7 9 -3 -15z"/>
 <path d="M615 455 c-27 -7 -41 -13 -30 -13 11 0 43 6 70 13 28 7 41 13 30 13 -11 0 -42 -6 -70 -13z"/>
 <path d="M365 420 c-48 -7 -48 -7 -10 -7 22 -1 65 2 95 7 54 7 54 7 10 7 -25 0 -67 -3 -95 -7z"/>
 <path d="M138 393 c12 -2 30 -2 40 0 9 3 -1 5 -23 4 -22 0 -30 -2 -17 -4z"/>
 <path d="M81 356 c8 -9 181 -67 186 -62 3 2 -33 16 -79 31 -46 16 -90 30 -98 33 -8 3 -12 2 -9 -2z"/>
 <path d="M552 270 c0 -19 2 -27 5 -17 2 9 2 25 0 35 -3 9 -5 1 -5 -18z"/>
 <path d="M562 205 c0 -16 3 -50 7 -75 6 -33 9 -37 9 -15 0 17 -3 50 -7 75 -6 33 -9 37 -9 15z"/>
 <path d="M340 110 c-20 -6 -21 -8 -5 -8 11 0 31 4 45 8 20 6 21 8 5 8 -11 0 -31 -4 -45 -8z"/>
 <path d="M783 640 c0 -25 2 -35 4 -22 2 12 2 32 0 45 -2 12 -4 2 -4 -23z"/>
 </g>
<g id="layer103" fill="#008d3c" stroke="none">
 <path d="M263 808 l-141 -82 -60 -173 -60 -174 101 -163 101 -163 175 -22 c97 -12 186 -21 198 -21 12 0 96 41 187 92 l164 91 11 51 c5 28 22 105 36 170 l26 119 -97 128 -96 127 -77 21 c-143 38 -313 81 -320 81 -4 0 -70 -37 -148 -82z m327 12 c85 -22 167 -45 182 -51 16 -7 62 -57 114 -127 l87 -115 -33 -158 c-18 -87 -37 -156 -42 -153 -4 3 -8 1 -8 -4 0 -9 -244 -152 -282 -165 -13 -4 -18 -1 -19 11 -1 15 -2 15 -6 -1 -4 -15 -7 -16 -21 -5 -12 10 -14 10 -8 1 9 -17 0 -17 -170 3 -76 8 -148 21 -159 29 -29 18 -178 262 -169 276 4 8 3 9 -4 5 -24 -14 -11 50 35 184 25 74 53 143 61 152 19 22 220 141 238 141 8 0 14 4 14 9 0 14 31 9 190 -32z"/>
 <path d="M521 462 c-1 -8 -6 -10 -13 -6 -9 6 -9 3 0 -9 8 -9 11 -20 9 -24 -3 -5 3 -10 14 -10 13 -1 19 5 19 18 0 11 -4 18 -9 14 -5 -3 -12 3 -14 12 -3 10 -5 12 -6 5z"/>
 <path d="M718 203 c17 -2 47 -2 65 0 17 2 3 4 -33 4 -36 0 -50 -2 -32 -4z"/>
 </g>
<g id="layer104" fill="#02b74f" stroke="none">
 <path d="M270 809 c-74 -44 -138 -83 -142 -87 -12 -12 -119 -326 -116 -343 2 -9 46 -85 98 -170 l95 -155 160 -19 c88 -10 176 -20 195 -22 29 -3 62 11 200 89 142 81 165 98 172 123 24 101 58 268 58 290 0 18 -31 67 -92 149 l-93 123 -65 16 c-36 9 -114 30 -175 46 -60 15 -121 31 -135 34 -19 4 -57 -14 -160 -74z m230 37 c207 -52 268 -69 286 -81 12 -8 59 -63 103 -122 80 -106 82 -109 76 -153 -7 -63 -55 -274 -63 -282 -4 -4 -77 -46 -162 -93 l-154 -87 -171 21 c-93 12 -177 24 -185 26 -19 6 -193 282 -195 310 -1 11 10 54 25 95 15 41 39 110 55 153 l27 78 127 74 c69 41 137 75 151 75 14 -1 50 -7 80 -14z"/>
 </g>

</svg>